<?xml version="1.0" encoding="UTF-8" standalone="no"?>
<!DOCTYPE svg PUBLIC "-//W3C//DTD SVG 1.1//EN" "http://www.w3.org/Graphics/SVG/1.1/DTD/svg11.dtd">
<svg width="100%" height="100%" viewBox="0 0 1201 1200" version="1.1" xmlns="http://www.w3.org/2000/svg" xmlns:xlink="http://www.w3.org/1999/xlink" xml:space="preserve" xmlns:serif="http://www.serif.com/" style="fill-rule:evenodd;clip-rule:evenodd;stroke-linejoin:round;stroke-miterlimit:2;">
    <g transform="matrix(1,0,0,1,-3741,0)">
        <g id="curseforge" transform="matrix(1.5,0,0,2,3741.05,0)">
            <rect x="0" y="0" width="800" height="600" style="fill:none;"/>
            <g transform="matrix(7.59894,0,0,5.69921,20,147.524)">
                <path d="M0,6.908L27.953,6.984L26.269,0L100.014,0L99.998,8.143C87.5,10.635 78.673,16.775 74.825,36.34L72.046,36.34L70.465,40.699L72.772,40.699L76.763,53.508L37.961,53.508L41.879,40.699L44.204,40.699L42.558,36.34L39.793,36.34L34.642,22.587C13.52,21.344 2.675,16.904 0,6.908ZM58.677,39.062C55.595,33.44 53.571,37.865 47.232,32.112C44.759,29.869 43.773,23.292 49.329,21.282C46.803,26.857 53.359,29.138 54.919,25.951C55.628,24.502 56.523,21.83 53.939,19.999C52.547,19.012 52.011,16.086 53.202,14.46C53.586,15.669 54.796,16.961 57.118,16.001C52.199,7.861 60.052,5.056 63.829,5.42C59.86,5.861 57.804,9.397 59.609,13.246C60.759,15.698 62.51,16.905 63.019,18.912C61.324,19.038 60.834,19.819 60.869,21.274C60.896,22.364 63.419,23.939 63.819,20.829C64.994,23.253 63.578,24.678 62.806,25.827C61.023,28.478 62.702,31.238 64.916,29.134C65.87,28.226 66.531,26.552 65.32,23.816C67.549,25.592 69.826,30.36 66.228,34.493C64.472,36.51 59.277,35.884 58.677,39.062L58.677,39.062Z" style="fill:rgb(241,100,54);"/>
            </g>
        </g>
    </g>
</svg>
