<?xml version="1.0" encoding="UTF-8" standalone="no"?><!DOCTYPE svg PUBLIC "-//W3C//DTD SVG 1.1//EN" "http://www.w3.org/Graphics/SVG/1.1/DTD/svg11.dtd"><svg width="100%" height="100%" viewBox="0 0 5000 5000" version="1.1" xmlns="http://www.w3.org/2000/svg" xmlns:xlink="http://www.w3.org/1999/xlink" xml:space="preserve" xmlns:serif="http://www.serif.com/" style="fill-rule:evenodd;clip-rule:evenodd;stroke-linejoin:round;stroke-miterlimit:2;"><rect id="external_white" x="0" y="0" width="5000" height="5000" style="fill:none;"/><path id="path3029" d="M3790.48,2703.83l0,849.021c0,210.486 -70.993,390.461 -212.979,539.924c-141.986,149.463 -312.957,224.194 -512.914,224.194l-2097.02,0c-199.957,0 -370.928,-74.731 -512.914,-224.194c-141.986,-149.463 -212.979,-329.438 -212.979,-539.924l-0,-2207.45c-0,-210.486 70.993,-390.461 212.979,-539.924c141.986,-149.463 312.957,-224.194 512.914,-224.194l1774.4,-0c23.525,-0 42.848,7.959 57.971,23.879c15.123,15.919 22.684,36.26 22.684,61.023l0,169.804c0,24.763 -7.561,45.104 -22.684,61.023c-15.123,15.92 -34.446,23.879 -57.971,23.879l-1774.4,0c-110.901,0 -205.838,41.567 -284.813,124.7c-78.974,83.133 -118.461,183.07 -118.461,299.81l-0,2207.45c-0,116.74 39.487,216.677 118.461,299.81c78.975,83.133 173.912,124.7 284.813,124.7l2097.02,0c110.901,0 205.838,-41.567 284.812,-124.7c78.975,-83.133 118.462,-183.07 118.462,-299.81l0,-849.021c0,-24.763 7.562,-45.104 22.684,-61.023c15.123,-15.919 34.447,-23.879 57.971,-23.879l161.309,0c23.525,0 42.848,7.96 57.971,23.879c15.123,15.919 22.684,36.26 22.684,61.023Zm967.857,-2292.36l0,1358.43c0,45.988 -15.963,85.786 -47.888,119.393c-31.926,33.607 -69.733,50.411 -113.421,50.411c-43.688,-0 -81.495,-16.804 -113.421,-50.411l-443.601,-466.961l-1643.34,1729.88c-16.803,17.688 -36.127,26.532 -57.971,26.532c-21.844,0 -41.167,-8.844 -57.97,-26.532l-287.333,-302.463c-16.803,-17.688 -25.204,-38.029 -25.204,-61.024c-0,-22.994 8.401,-43.335 25.204,-61.023l1643.34,-1729.88l-443.601,-466.962c-31.926,-33.607 -47.889,-73.405 -47.889,-119.393c0,-45.989 15.963,-85.787 47.889,-119.394c31.926,-33.607 69.733,-50.41 113.421,-50.41l1290.48,-0c43.688,-0 81.495,16.803 113.421,50.41c31.925,33.607 47.888,73.405 47.888,119.394Z" style="fill:#fff;fill-rule:nonzero;"/></svg>