<?xml version="1.0" encoding="UTF-8" standalone="no"?><!DOCTYPE svg PUBLIC "-//W3C//DTD SVG 1.1//EN" "http://www.w3.org/Graphics/SVG/1.1/DTD/svg11.dtd"><svg width="100%" height="100%" viewBox="0 0 1250 1250" version="1.1" xmlns="http://www.w3.org/2000/svg" xmlns:xlink="http://www.w3.org/1999/xlink" xml:space="preserve" xmlns:serif="http://www.serif.com/" style="fill-rule:evenodd;clip-rule:evenodd;stroke-linejoin:round;stroke-miterlimit:2;"><rect id="github-white" x="0" y="0" width="1250" height="1250" style="fill:none;"/><clipPath id="_clip1"><rect id="github-mark-white.svg" x="104.167" y="114.796" width="1041.67" height="1020.41"/></clipPath><g clip-path="url(#_clip1)"><path d="M623.448,114.796c-287.149,-0 -519.281,233.843 -519.281,523.14c-0,231.25 148.735,426.998 355.07,496.28c25.797,5.208 35.246,-11.257 35.246,-25.107c0,-12.128 -0.85,-53.699 -0.85,-97.013c-144.451,31.186 -174.532,-62.362 -174.532,-62.362c-23.215,-60.629 -57.611,-76.211 -57.611,-76.211c-47.279,-32.048 3.444,-32.048 3.444,-32.048c52.445,3.465 79.964,53.699 79.964,53.699c46.418,79.677 121.216,57.164 151.307,43.304c4.295,-33.78 18.059,-57.164 32.675,-70.153c-115.211,-12.128 -236.427,-57.164 -236.427,-258.11c0,-57.164 20.621,-103.933 53.295,-140.306c-5.155,-12.989 -23.214,-66.699 5.166,-138.585c0,0 43.846,-13.86 142.708,53.699c42.327,-11.451 85.978,-17.276 129.826,-17.325c43.846,-0 88.542,6.069 129.815,17.325c98.873,-67.559 142.719,-53.699 142.719,-53.699c28.38,71.886 10.311,125.596 5.155,138.585c33.536,36.373 53.306,83.142 53.306,140.306c0,200.946 -121.216,245.11 -237.287,258.11c18.92,16.454 35.246,47.63 35.246,97.002c0,70.153 -0.85,126.457 -0.85,143.772c-0,13.86 9.46,30.325 35.246,25.127c206.336,-69.303 355.071,-265.04 355.071,-496.29c0.85,-289.297 -232.133,-523.14 -518.421,-523.14Z" style="fill:#fff;"/></g></svg>