<?xml version="1.0" encoding="UTF-8" standalone="no"?><!DOCTYPE svg PUBLIC "-//W3C//DTD SVG 1.1//EN" "http://www.w3.org/Graphics/SVG/1.1/DTD/svg11.dtd"><svg width="100%" height="100%" viewBox="0 0 1250 1250" version="1.1" xmlns="http://www.w3.org/2000/svg" xmlns:xlink="http://www.w3.org/1999/xlink" xml:space="preserve" xmlns:serif="http://www.serif.com/" style="fill-rule:evenodd;clip-rule:evenodd;stroke-linejoin:round;stroke-miterlimit:2;"><rect id="github-black" x="0" y="0" width="1250" height="1250" style="fill:none;"/><clipPath id="_clip1"><rect id="github-mark.svg" x="83.333" y="94.388" width="1083.33" height="1061.22"/></clipPath><g clip-path="url(#_clip1)"><path d="M623.386,94.388c-298.635,-0 -540.053,243.197 -540.053,544.065c0,240.5 154.685,444.078 369.273,516.131c26.829,5.417 36.657,-11.706 36.657,-26.11c-0,-12.613 -0.885,-55.847 -0.885,-100.894c-150.229,32.434 -181.513,-64.856 -181.513,-64.856c-24.143,-63.055 -59.915,-79.261 -59.915,-79.261c-49.17,-33.329 3.581,-33.329 3.581,-33.329c54.543,3.604 83.163,55.847 83.163,55.847c48.275,82.864 126.065,59.451 157.36,45.036c4.466,-35.131 18.781,-59.451 33.981,-72.959c-119.819,-12.613 -245.884,-59.451 -245.884,-268.435c0,-59.45 21.446,-108.09 55.427,-145.918c-5.361,-13.509 -24.143,-69.367 5.373,-144.128c-0,0 45.599,-14.415 148.416,55.847c44.02,-11.909 89.417,-17.967 135.019,-18.018c45.6,-0 92.083,6.312 135.008,18.018c102.828,-70.262 148.427,-55.847 148.427,-55.847c29.516,74.761 10.723,130.619 5.362,144.128c34.877,37.828 55.438,86.468 55.438,145.918c-0,208.984 -126.065,254.915 -246.779,268.435c19.677,17.112 36.656,49.535 36.656,100.882c0,72.96 -0.884,131.515 -0.884,149.523c-0,14.415 9.838,31.538 36.656,26.132c214.589,-72.075 369.273,-275.642 369.273,-516.142c0.885,-300.868 -241.417,-544.065 -539.157,-544.065Z" style="fill:#24292f;"/></g></svg>