<?xml version="1.0" encoding="UTF-8" standalone="no"?><!DOCTYPE svg PUBLIC "-//W3C//DTD SVG 1.1//EN" "http://www.w3.org/Graphics/SVG/1.1/DTD/svg11.dtd"><svg width="100%" height="100%" viewBox="0 0 5000 5000" version="1.1" xmlns="http://www.w3.org/2000/svg" xmlns:xlink="http://www.w3.org/1999/xlink" xml:space="preserve" xmlns:serif="http://www.serif.com/" style="fill-rule:evenodd;clip-rule:evenodd;stroke-linejoin:round;stroke-miterlimit:1.5;"><rect id="modrinth" x="0" y="0" width="5000" height="5000" style="fill:none;"/><g><g><clipPath id="_clip1"><path d="M4391.67,608.333l-3783.33,0l0,3783.33l3783.33,-0l-0,-3783.33Zm-2042.92,1865l2.876,66.473l334.068,1247.1l296.727,-79.526l-325.216,-1214.22l219.585,-1245.93l-302.553,-53.345l-225.487,1279.45Z"/></clipPath><g clip-path="url(#_clip1)"><path d="M2500,1251.5c688.831,-0 1248.05,559.441 1248.05,1248.5c-0,689.059 -559.215,1248.5 -1248.05,1248.5c-688.832,0 -1248.05,-559.441 -1248.05,-1248.5c-0,-689.059 559.214,-1248.5 1248.05,-1248.5Zm-0,340.5c500.913,0 907.546,406.898 907.546,908c-0,501.103 -406.633,908 -907.546,908c-500.913,0 -907.546,-406.897 -907.546,-908c-0,-501.102 406.633,-908 907.546,-908Z" style="fill:#00d845;"/></g></g><g><clipPath id="_clip2"><path d="M608.333,608.333l0,1740.33l1891.67,-0l51.756,9.118l1802.08,655.916l-103.512,284.393l-1776.99,-646.761l-1864.99,0l0,1740.33l3783.33,-0l-0,-3783.33l-3783.33,0Z"/></clipPath><g clip-path="url(#_clip2)"><path d="M2500,608.333c1044.05,0 1891.67,847.618 1891.67,1891.67c-0,1044.05 -847.618,1891.67 -1891.67,1891.67c-1044.05,-0 -1891.67,-847.618 -1891.67,-1891.67c0,-1044.05 847.618,-1891.67 1891.67,-1891.67Zm-0,340.5c856.13,0 1551.17,695.036 1551.17,1551.17c-0,856.131 -695.037,1551.17 -1551.17,1551.17c-856.131,-0 -1551.17,-695.036 -1551.17,-1551.17c0,-856.131 695.036,-1551.17 1551.17,-1551.17Z" style="fill:#00d845;"/></g></g><g><clipPath id="_clip3"><path d="M2500,608.333c1044.05,0 1891.67,847.618 1891.67,1891.67c-0,1044.05 -847.618,1891.67 -1891.67,1891.67c-1044.05,-0 -1891.67,-847.618 -1891.67,-1891.67c0,-1044.05 847.618,-1891.67 1891.67,-1891.67Zm-0,1496.27c218.223,-0 395.396,177.173 395.396,395.396c0,218.223 -177.173,395.396 -395.396,395.396c-218.223,0 -395.396,-177.173 -395.396,-395.396c-0,-218.223 177.173,-395.396 395.396,-395.396Z"/></clipPath><g clip-path="url(#_clip3)"><path d="M2500,2500l-1696.03,979.202" style="fill:none;stroke:#00d845;stroke-width:340.5px;"/></g></g><g><clipPath id="_clip4"><path d="M2500,608.333c1044.05,0 1891.67,847.618 1891.67,1891.67c-0,1044.05 -847.618,1891.67 -1891.67,1891.67c-1044.05,-0 -1891.67,-847.618 -1891.67,-1891.67c0,-1044.05 847.618,-1891.67 1891.67,-1891.67Zm-0,959.454c514.495,-0 932.213,417.718 932.213,932.213c0,514.496 -417.718,932.213 -932.213,932.213c-514.496,0 -932.213,-417.717 -932.213,-932.213c-0,-514.496 417.717,-932.213 932.213,-932.213Z"/></clipPath><g clip-path="url(#_clip4)"><path d="M2500,2500l1891.67,-506.853" style="fill:none;stroke:#00d845;stroke-width:340.5px;"/></g></g><path d="M2017.36,2603.89l-84.86,-293.057l302.667,-340.5l416.166,-113.5l151.334,151.334l-227,227l-151.334,37.833l-113.5,151.333l42.374,160.414l117.737,116.905l187.805,-22.625l108.43,-112.138l310.082,-83.082l55.388,206.722l-306.374,303.65l-446.207,91.859l-211.375,-220.001l-151.333,-262.147Z" style="fill:#00d845;"/></g></svg>