<?xml version="1.0" encoding="UTF-8" standalone="no"?>
<!DOCTYPE svg PUBLIC "-//W3C//DTD SVG 1.1//EN" "http://www.w3.org/Graphics/SVG/1.1/DTD/svg11.dtd">
<svg width="100%" height="100%" viewBox="0 0 1201 1200" version="1.1" xmlns="http://www.w3.org/2000/svg" xmlns:xlink="http://www.w3.org/1999/xlink" xml:space="preserve" xmlns:serif="http://www.serif.com/" style="fill-rule:evenodd;clip-rule:evenodd;stroke-linejoin:round;stroke-miterlimit:1.5;">
    <g transform="matrix(1,0,0,1,-2494,0)">
        <g id="modrinth" transform="matrix(1.5,0,0,2,2494.03,0)">
            <rect x="0" y="0" width="800" height="600" style="fill:none;"/>
            <g transform="matrix(1.05556,0,0,1.05556,20,-16.6667)">
                <g transform="matrix(7.2,0,0,5.4,0,30)">
                    <clipPath id="_clip1">
                        <path d="M100,0L0,0L0,100L100,100L100,0ZM46.002,49.295L46.078,51.052L54.908,84.015L62.751,81.913L54.155,49.819L59.959,16.887L51.962,15.477L46.002,49.295Z"/>
                    </clipPath>
                    <g clip-path="url(#_clip1)">
                        <path d="M50,17C68.207,17 82.988,31.787 82.988,50C82.988,68.213 68.207,83 50,83C31.793,83 17.012,68.213 17.012,50C17.012,31.787 31.793,17 50,17ZM50,26C63.24,26 73.988,36.755 73.988,50C73.988,63.245 63.24,74 50,74C36.76,74 26.012,63.245 26.012,50C26.012,36.755 36.76,26 50,26Z" style="fill:rgb(0,216,69);"/>
                    </g>
                </g>
                <g transform="matrix(7.2,0,0,5.4,0,30)">
                    <clipPath id="_clip2">
                        <path d="M0,0L0,46L50,46L51.368,46.241L99,63.578L96.264,71.095L49.295,54L0,54L0,100L100,100L100,0L0,0Z"/>
                    </clipPath>
                    <g clip-path="url(#_clip2)">
                        <path d="M50,0C77.596,0 100,22.404 100,50C100,77.596 77.596,100 50,100C22.404,100 0,77.596 0,50C0,22.404 22.404,0 50,0ZM50,9C72.629,9 91,27.371 91,50C91,72.629 72.629,91 50,91C27.371,91 9,72.629 9,50C9,27.371 27.371,9 50,9Z" style="fill:rgb(0,216,69);"/>
                    </g>
                </g>
                <g transform="matrix(7.2,0,0,5.4,0,30)">
                    <clipPath id="_clip3">
                        <path d="M50,0C77.596,0 100,22.404 100,50C100,77.596 77.596,100 50,100C22.404,100 0,77.596 0,50C0,22.404 22.404,0 50,0ZM50,39.549C55.768,39.549 60.451,44.232 60.451,50C60.451,55.768 55.768,60.451 50,60.451C44.232,60.451 39.549,55.768 39.549,50C39.549,44.232 44.232,39.549 50,39.549Z"/>
                    </clipPath>
                    <g clip-path="url(#_clip3)">
                        <path d="M50,50L5.171,75.882" style="fill:none;stroke:rgb(0,216,69);stroke-width:9px;"/>
                    </g>
                </g>
                <g transform="matrix(7.2,0,0,5.4,0,30)">
                    <clipPath id="_clip4">
                        <path d="M50,0C77.596,0 100,22.404 100,50C100,77.596 77.596,100 50,100C22.404,100 0,77.596 0,50C0,22.404 22.404,0 50,0ZM50,25.36C63.599,25.36 74.64,36.401 74.64,50C74.64,63.599 63.599,74.64 50,74.64C36.401,74.64 25.36,63.599 25.36,50C25.36,36.401 36.401,25.36 50,25.36Z"/>
                    </clipPath>
                    <g clip-path="url(#_clip4)">
                        <path d="M50,50L100,36.603" style="fill:none;stroke:rgb(0,216,69);stroke-width:9px;"/>
                    </g>
                </g>
                <g transform="matrix(7.2,0,0,5.4,0,30)">
                    <path d="M37.243,52.746L35,45L43,36L54,33L58,37L52,43L48,44L45,48L46.12,52.24L49.232,55.33L54.196,54.732L57.062,51.768L65.258,49.572L66.722,55.036L58.624,63.062L46.83,65.49L41.243,59.675L37.243,52.746Z" style="fill:rgb(0,216,69);"/>
                </g>
            </g>
        </g>
    </g>
</svg>
