<?xml version="1.0" encoding="UTF-8" standalone="no"?><!DOCTYPE svg PUBLIC "-//W3C//DTD SVG 1.1//EN" "http://www.w3.org/Graphics/SVG/1.1/DTD/svg11.dtd"><svg width="100%" height="100%" viewBox="0 0 5000 5000" version="1.1" xmlns="http://www.w3.org/2000/svg" xmlns:xlink="http://www.w3.org/1999/xlink" xml:space="preserve" xmlns:serif="http://www.serif.com/" style="fill-rule:evenodd;clip-rule:evenodd;stroke-linejoin:round;stroke-miterlimit:2;"><rect id="moon" x="0" y="0" width="5000" height="5000" style="fill:none;"/><path d="M390.106,3719.36c-85.893,-148.772 -326.726,-1039.17 -326.726,-1210.96c-0,-171.788 240.833,-1078.99 326.726,-1227.76c85.894,-148.773 743.862,-806.74 892.634,-892.634c148.772,-85.894 1047.57,-326.727 1219.36,-326.727c171.788,0 1070.59,240.833 1219.36,326.727c148.772,85.894 806.74,743.861 892.634,892.634c85.893,148.772 322.525,1051.77 322.525,1223.56c0,171.787 -236.632,1066.39 -322.525,1215.16c-85.894,148.773 -743.862,806.74 -892.634,892.634c-148.772,85.894 -1047.57,326.727 -1219.36,326.727c-171.787,-0 -1070.59,-240.833 -1219.36,-326.727c-148.772,-85.894 -806.74,-743.861 -892.634,-892.634Z" style="fill:url(#_Linear1);"/><defs><linearGradient id="_Linear1" x1="0" y1="0" x2="1" y2="0" gradientUnits="userSpaceOnUse" gradientTransform="matrix(4.13164e-13,-6747.49,6747.49,4.13164e-13,2746,6817.17)"><stop offset="0" style="stop-color:#3e0064;stop-opacity:1"/><stop offset="0.58" style="stop-color:#632979;stop-opacity:1"/><stop offset="0.8" style="stop-color:#b280a7;stop-opacity:1"/><stop offset="1" style="stop-color:#ffd3d3;stop-opacity:1"/></linearGradient></defs></svg>