<?xml version="1.0" encoding="UTF-8" standalone="no"?>
<!DOCTYPE svg PUBLIC "-//W3C//DTD SVG 1.1//EN" "http://www.w3.org/Graphics/SVG/1.1/DTD/svg11.dtd">
<svg width="100%" height="100%" viewBox="0 0 1201 1200" version="1.1" xmlns="http://www.w3.org/2000/svg" xmlns:xlink="http://www.w3.org/1999/xlink" xml:space="preserve" xmlns:serif="http://www.serif.com/" style="fill-rule:evenodd;clip-rule:evenodd;stroke-linejoin:round;stroke-miterlimit:2;">
    <g transform="matrix(1,0,0,1,-1247,0)">
        <g id="personal_site" transform="matrix(1.5,0,0,2,1247.02,0)">
            <rect x="0" y="0" width="800" height="600" style="fill:none;"/>
            <g transform="matrix(3.87805e-17,-0.475,0.633333,2.90854e-17,-811.567,1231.91)">
                <path d="M1475.44,1913L1847.02,1313L2140.39,1913L1847.02,2513L1475.44,1913ZM1969.85,1601.44L2051.97,1517.95L2136.82,1601.44L2250.86,1570.88L2281.41,1684.92L2395.45,1715.48L2364.89,1829.52L2448.38,1913L2364.89,1996.48L2395.45,2110.52L2281.41,2141.08L2250.86,2255.12L2136.82,2224.56L2052.65,2307.37L1969.85,2224.56L1855.81,2255.12L1825.25,2141.08L1711.21,2110.52L1741.77,1996.48L1658.29,1913L1741.77,1829.52L1711.21,1715.48L1825.25,1684.92L1855.81,1570.88L1969.85,1601.44Z" style="fill:url(#_Linear1);"/>
            </g>
        </g>
    </g>
    <defs>
        <linearGradient id="_Linear1" x1="0" y1="0" x2="1" y2="0" gradientUnits="userSpaceOnUse" gradientTransform="matrix(1093.02,0,0,1093.02,1354,1952.51)"><stop offset="0" style="stop-color:rgb(255,22,120);stop-opacity:1"/><stop offset="0.58" style="stop-color:rgb(252,65,97);stop-opacity:1"/><stop offset="0.8" style="stop-color:rgb(244,157,48);stop-opacity:1"/><stop offset="1" style="stop-color:rgb(237,245,0);stop-opacity:1"/></linearGradient>
    </defs>
</svg>
