<?xml version="1.0" encoding="UTF-8" standalone="no"?>
<!DOCTYPE svg PUBLIC "-//W3C//DTD SVG 1.1//EN" "http://www.w3.org/Graphics/SVG/1.1/DTD/svg11.dtd">
<svg width="100%" height="100%" viewBox="0 0 1200 1200" version="1.1" xmlns="http://www.w3.org/2000/svg" xmlns:xlink="http://www.w3.org/1999/xlink" xml:space="preserve" xmlns:serif="http://www.serif.com/" style="fill-rule:evenodd;clip-rule:evenodd;stroke-linecap:round;stroke-linejoin:round;stroke-miterlimit:1.5;">
    <g id="seacroak" transform="matrix(1.5,0,0,2,0,0)">
        <rect x="0" y="0" width="800" height="600" style="fill:none;"/>
        <g id="frog" transform="matrix(3.96454,0,0,2.9734,-8665.6,-3574.34)">
            <g id="left_foot" transform="matrix(1.50345,0,0,1.50345,-1149.05,-692.365)">
                <g transform="matrix(-1.80703,-2.1744,-0.799077,0.664072,11567.3,12087.1)">
                    <circle cx="5031.5" cy="287.5" r="10.5" style="fill:rgb(88,155,92);"/>
                    <path d="M5031.5,274.95C5035.75,274.95 5039.43,277.472 5041.26,281.004C5042.26,282.917 5042.75,285.198 5042.75,287.5C5042.75,289.802 5042.26,292.083 5041.26,293.996C5039.43,297.528 5035.75,300.05 5031.5,300.05C5027.25,300.05 5023.57,297.528 5021.74,293.996C5020.74,292.083 5020.25,289.802 5020.25,287.5C5020.25,285.198 5020.74,282.917 5021.74,281.004C5023.57,277.472 5027.25,274.95 5031.5,274.95ZM5031.5,277C5037.3,277 5042,281.705 5042,287.5C5042,293.295 5037.3,298 5031.5,298C5025.7,298 5021,293.295 5021,287.5C5021,281.705 5025.7,277 5031.5,277Z" style="fill:rgb(64,64,64);"/>
                </g>
                <g transform="matrix(-2.3925,8.71106e-17,6.54372e-17,0.553354,14292.4,1201.98)">
                    <circle cx="5031.5" cy="287.5" r="10.5" style="fill:rgb(79,120,82);"/>
                    <path d="M5031.5,273.862C5035.69,273.862 5039.32,276.332 5041.12,279.81C5041.7,280.915 5042.11,282.178 5042.36,283.435C5042.61,284.739 5042.73,286.122 5042.73,287.5C5042.73,288.878 5042.61,290.261 5042.36,291.565C5042.11,292.822 5041.7,294.085 5041.12,295.19C5039.32,298.668 5035.69,301.138 5031.5,301.138C5027.31,301.138 5023.68,298.668 5021.88,295.19C5021.3,294.085 5020.89,292.822 5020.64,291.565C5020.39,290.261 5020.27,288.878 5020.27,287.5C5020.27,286.122 5020.39,284.739 5020.64,283.435C5020.89,282.178 5021.3,280.915 5021.88,279.81C5023.68,276.332 5027.31,273.862 5031.5,273.862ZM5031.5,277C5037.3,277 5042,281.705 5042,287.5C5042,293.295 5037.3,298 5031.5,298C5025.7,298 5021,293.295 5021,287.5C5021,281.705 5025.7,277 5031.5,277Z" style="fill:rgb(64,64,64);"/>
                </g>
            </g>
            <g id="right_foot" transform="matrix(1.50345,0,0,1.50345,-1149.05,-692.365)">
                <g transform="matrix(1.85962,-2.23768,0.941935,0.782793,-7304.58,12372)">
                    <circle cx="5031.5" cy="287.5" r="10.5" style="fill:rgb(96,146,100);"/>
                    <path d="M5031.5,275.177C5027.86,275.177 5024.64,276.994 5022.65,279.72C5021.08,281.859 5020.23,284.647 5020.23,287.5C5020.23,290.353 5021.08,293.141 5022.65,295.28C5024.64,298.006 5027.86,299.823 5031.5,299.823C5035.14,299.823 5038.36,298.006 5040.36,295.28C5041.92,293.141 5042.77,290.353 5042.77,287.5C5042.77,284.647 5041.92,281.859 5040.36,279.72C5038.36,276.994 5035.14,275.177 5031.5,275.177ZM5031.5,277C5037.3,277 5042,281.705 5042,287.5C5042,293.295 5037.3,298 5031.5,298C5025.7,298 5021,293.295 5021,287.5C5021,281.705 5025.7,277 5031.5,277Z" style="fill:rgb(64,64,64);"/>
                </g>
                <g transform="matrix(2.3925,8.71106e-17,-6.54372e-17,0.553354,-9726.03,1201.98)">
                    <circle cx="5031.5" cy="287.5" r="10.5" style="fill:rgb(79,120,82);"/>
                    <path d="M5031.5,273.862C5027.31,273.862 5023.68,276.332 5021.88,279.81C5021.3,280.915 5020.89,282.178 5020.64,283.435C5020.39,284.739 5020.27,286.122 5020.27,287.5C5020.27,288.878 5020.39,290.261 5020.64,291.565C5020.89,292.822 5021.3,294.085 5021.88,295.19C5023.68,298.668 5027.31,301.138 5031.5,301.138C5035.69,301.138 5039.32,298.668 5041.12,295.19C5041.7,294.085 5042.11,292.822 5042.36,291.565C5042.61,290.261 5042.73,288.878 5042.73,287.5C5042.73,286.122 5042.61,284.739 5042.36,283.435C5042.11,282.178 5041.7,280.915 5041.12,279.81C5039.32,276.332 5035.69,273.862 5031.5,273.862ZM5031.5,277C5037.3,277 5042,281.705 5042,287.5C5042,293.295 5037.3,298 5031.5,298C5025.7,298 5021,293.295 5021,287.5C5021,281.705 5025.7,277 5031.5,277Z" style="fill:rgb(64,64,64);"/>
                </g>
            </g>
            <g id="body_back" transform="matrix(6.94452,0,0,4.52446,-32653.5,13.2563)">
                <circle cx="5031.5" cy="287.5" r="10.5" style="fill:rgb(138,246,145);"/>
                <clipPath id="_clip1">
                    <circle cx="5031.5" cy="287.5" r="10.5"/>
                </clipPath>
                <g clip-path="url(#_clip1)">
                    <g id="body_front" transform="matrix(0.863675,0,0,0.948573,685.92,20.3095)">
                        <circle cx="5031.5" cy="287.5" r="10.5" style="fill:rgb(202,255,166);"/>
                    </g>
                </g>
                <path d="M5031.5,275.705C5027.79,275.705 5024.51,277.55 5022.47,280.332C5021,282.336 5020.16,284.827 5020.16,287.5C5020.16,290.173 5021,292.664 5022.47,294.668C5024.51,297.45 5027.79,299.295 5031.5,299.295C5035.21,299.295 5038.49,297.45 5040.53,294.668C5042,292.664 5042.84,290.173 5042.84,287.5C5042.84,284.827 5042,282.336 5040.53,280.332C5038.49,277.55 5035.21,275.705 5031.5,275.705ZM5031.5,277C5037.3,277 5042,281.705 5042,287.5C5042,293.295 5037.3,298 5031.5,298C5025.7,298 5021,293.295 5021,287.5C5021,281.705 5025.7,277 5031.5,277Z" style="fill:rgb(64,64,64);"/>
            </g>
            <g id="eye_right" transform="matrix(1.50345,0,0,1.50345,-1149.05,-692.365)">
                <g id="white_outer" transform="matrix(1.4697,0,0,1.4697,-5087.47,880.394)">
                    <circle cx="5031.5" cy="287.5" r="10.5" style="fill:rgb(242,242,242);"/>
                    <path d="M5031.5,276C5025.15,276 5020,281.153 5020,287.5C5020,293.847 5025.15,299 5031.5,299C5037.85,299 5043,293.847 5043,287.5C5043,281.153 5037.85,276 5031.5,276ZM5031.5,277C5037.3,277 5042,281.705 5042,287.5C5042,293.295 5037.3,298 5031.5,298C5025.7,298 5021,293.295 5021,287.5C5021,281.705 5025.7,277 5031.5,277Z" style="fill:rgb(64,64,64);"/>
                </g>
                <g transform="matrix(0.909812,0,0,0.909812,-2270.41,1041.36)">
                    <circle cx="5031.5" cy="287.5" r="10.5" style="fill:rgb(76,63,72);"/>
                </g>
                <g id="white_inner" transform="matrix(0.407287,0,0,0.407287,251.769,1188.56)">
                    <circle cx="5031.5" cy="287.5" r="10.5" style="fill:rgb(242,242,242);"/>
                </g>
            </g>
            <g id="eye_left" transform="matrix(1.50345,0,0,1.50345,-1149.05,-692.365)">
                <g id="white_outer1" serif:id="white_outer" transform="matrix(1.4697,0,0,1.4697,-5130.09,880.394)">
                    <circle cx="5031.5" cy="287.5" r="10.5" style="fill:rgb(242,242,242);"/>
                    <path d="M5031.5,276C5025.15,276 5020,281.153 5020,287.5C5020,293.847 5025.15,299 5031.5,299C5037.85,299 5043,293.847 5043,287.5C5043,281.153 5037.85,276 5031.5,276ZM5031.5,277C5037.3,277 5042,281.705 5042,287.5C5042,293.295 5037.3,298 5031.5,298C5025.7,298 5021,293.295 5021,287.5C5021,281.705 5025.7,277 5031.5,277Z" style="fill:rgb(64,64,64);"/>
                </g>
                <g transform="matrix(0.909812,0,0,0.909812,-2313.03,1041.36)">
                    <circle cx="5031.5" cy="287.5" r="10.5" style="fill:rgb(76,63,72);"/>
                </g>
                <g id="white_inner1" serif:id="white_inner" transform="matrix(0.407287,0,0,0.407287,207.769,1188.56)">
                    <circle cx="5031.5" cy="287.5" r="10.5" style="fill:rgb(242,242,242);"/>
                </g>
            </g>
            <g id="mouth" transform="matrix(0.76733,0,0,0.766825,-1586.88,1016.78)">
                <path d="M5031.24,367C5043.49,375.132 5055.75,375.196 5068,367" style="fill:none;stroke:rgb(105,103,99);stroke-width:3px;"/>
            </g>
        </g>
    </g>
</svg>
