<?xml version="1.0" encoding="UTF-8" standalone="no"?><!DOCTYPE svg PUBLIC "-//W3C//DTD SVG 1.1//EN" "http://www.w3.org/Graphics/SVG/1.1/DTD/svg11.dtd"><svg width="100%" height="100%" viewBox="0 0 5000 5000" version="1.1" xmlns="http://www.w3.org/2000/svg" xmlns:xlink="http://www.w3.org/1999/xlink" xml:space="preserve" xmlns:serif="http://www.serif.com/" style="fill-rule:evenodd;clip-rule:evenodd;stroke-linejoin:round;stroke-miterlimit:2;"><rect id="sun" x="0" y="0" width="5000" height="5000" style="fill:none;"/><path d="M578.742,3015.36l-515.362,-506.96l515.362,-523.764l-188.636,-703.998l703.998,-188.636l188.636,-703.998l703.998,188.636l515.362,-515.363l515.363,515.363l703.998,-188.636l188.636,703.998l703.998,188.636l-188.636,703.998l511.161,519.563l-511.161,511.161l188.636,703.998l-703.998,188.636l-188.636,703.998l-703.998,-188.636l-515.363,515.363l-515.362,-515.363l-703.998,188.636l-188.636,-703.998l-703.998,-188.636l188.636,-703.998Z" style="fill:url(#_Linear1);"/><defs><linearGradient id="_Linear1" x1="0" y1="0" x2="1" y2="0" gradientUnits="userSpaceOnUse" gradientTransform="matrix(4.13164e-13,-6747.49,6747.49,4.13164e-13,2746,6817.17)"><stop offset="0" style="stop-color:#ff1678;stop-opacity:1"/><stop offset="0.58" style="stop-color:#fc4161;stop-opacity:1"/><stop offset="0.8" style="stop-color:#f49d30;stop-opacity:1"/><stop offset="1" style="stop-color:#edf500;stop-opacity:1"/></linearGradient></defs></svg>